# xmcd
#
# Track frame offsets:
# 150
# 14392
# 29937
# 48200
# 66347
# 88612
# 104405
# 125670
# 139405
# 158077
#
# Disc length: 2344 seconds
#
#
# Revision: 0
# Processed by: cddbd v1.5.2PL0 Copyright (c) Steve Scherf et al.
# Submitted via: FreeRIP 2.941 
#
DISCID=8f09260a
DTITLE=Steve and Annie Chapman - Between The 2 Of Them
DYEAR=1993
DGENRE=Christian
TTITLE0=Everyone Within Me
TTITLE1=Sonshine
TTITLE2=Letting Go
TTITLE3=Run For The Gold
TTITLE4=Mystery Of The Season
TTITLE5=Between The Two Of Them
TTITLE6=To The Altar
TTITLE7=Survivor
TTITLE8=My Daughter's Friend
TTITLE9=These Last Days
EXTD=
EXTT0=
EXTT1=
EXTT2=
EXTT3=
EXTT4=
EXTT5=
EXTT6=
EXTT7=
EXTT8=
EXTT9=
PLAYORDER=
